# xmcd CD database file
#
# Track frame offsets:
#	150
#	20297
#	42206
#	65191
#	84335
#	113116
#	137494
#	159154
#	178581
#	198140
#	219346
#	241653
#	264484
#	282256
#	302155
#	322020
#
# Disc length: 4585 seconds
#
# Revision: 1
# Processed by: cddbd v1.5.1PL0 Copyright (c) Steve Scherf et al.
# Submitted via: CDex 1.51
#
DISCID=d311e710
DTITLE=Frankie Ruiz - Las 32 Mas Grandes de Frankie Ruiz Disc1
DYEAR=2004
DGENRE=Salsa
TTITLE0=Mi Libertad
TTITLE1=Bailando
TTITLE2=Mirandote
TTITLE3=Voy Pa'Encima
TTITLE4=La Rueda
TTITLE5=El Camionero
TTITLE6=Nunca Me Quedas
TTITLE7=Vuelvo a Nacer
TTITLE8=Ahora Me Toca a Mi
TTITLE9=Me Faltas
TTITLE10=La Cura
TTITLE11=Ironia
TTITLE12=Perdon Senora
TTITLE13=Entre el Fuego y la Pared
TTITLE14=Hablame
TTITLE15=Primero Fui Yo
EXTD=YEAR: 2004
EXTT0=
EXTT1=
EXTT2=
EXTT3=
EXTT4=
EXTT5=
EXTT6=
EXTT7=
EXTT8=
EXTT9=
EXTT10=
EXTT11=
EXTT12=
EXTT13=
EXTT14=
EXTT15=
PLAYORDER=
